<svg width="1512" height="558" viewBox="0 0 1512 558" fill="none" xmlns="http://www.w3.org/2000/svg">
<path d="M0 0L47.25 12C78.2578 19.875 110.742 19.875 141.75 12C172.758 4.125 205.242 4.125 236.25 12C267.258 19.875 299.742 19.875 330.75 12C361.758 4.125 394.242 4.125 425.25 12C456.258 19.875 488.742 19.875 519.75 12C550.758 4.125 583.242 4.125 614.25 12C645.258 19.875 677.742 19.875 708.75 12C739.758 4.125 772.242 4.125 803.25 12C834.258 19.875 866.742 19.875 897.75 12C928.758 4.125 961.242 4.125 992.25 12C1023.26 19.875 1055.74 19.875 1086.75 12C1117.76 4.125 1150.24 4.125 1181.25 12C1212.26 19.875 1244.74 19.875 1275.75 12C1306.76 4.125 1339.24 4.125 1370.25 12C1401.26 19.875 1433.74 19.875 1464.75 12L1512 0V558L1464.75 546C1433.74 538.125 1401.26 538.125 1370.25 546C1339.24 553.875 1306.76 553.875 1275.75 546C1244.74 538.125 1212.26 538.125 1181.25 546L1176.91 547.101C1148.62 554.288 1119.13 555.482 1090.34 550.609L1076.89 548.331C1052.14 544.14 1026.86 544.14 1002.11 548.331L988.655 550.609C959.87 555.482 930.383 554.288 902.086 547.101L897.75 546C866.742 538.125 834.258 538.125 803.25 546C772.242 553.875 739.758 553.875 708.75 546C677.742 538.125 645.258 538.125 614.25 546C583.242 553.875 550.758 553.875 519.75 546C488.742 538.125 456.258 538.125 425.25 546C394.242 553.875 361.758 553.875 330.75 546C299.742 538.125 267.258 538.125 236.25 546C205.242 553.875 172.758 553.875 141.75 546C110.742 538.125 78.2578 538.125 47.25 546L0 558V0Z" fill="#F1DDCC"/>
</svg>
