<svg xmlns="http://www.w3.org/2000/svg" width="100%" height="100%" viewBox="0 0 1512 326" fill="none">
  <path d="M0 0L73.1322 12.3822C87.2767 14.777 101.723 14.777 115.868 12.3822L167.632 3.61784C181.777 1.22299 196.223 1.22299 210.368 3.61784L262.132 12.3822C276.277 14.777 290.723 14.777 304.868 12.3822L356.632 3.61784C370.777 1.22299 385.223 1.22299 399.368 3.61784L451.132 12.3822C465.277 14.777 479.723 14.777 493.868 12.3822L545.632 3.61784C559.777 1.22299 574.223 1.22299 588.368 3.61784L640.132 12.3822C654.277 14.777 668.723 14.777 682.868 12.3822L734.632 3.61784C748.777 1.22299 763.223 1.22299 777.368 3.61784L829.132 12.3822C843.277 14.777 857.723 14.777 871.868 12.3822L923.632 3.61784C937.777 1.22299 952.223 1.22299 966.368 3.61784L1018.13 12.3822C1032.28 14.777 1046.72 14.777 1060.87 12.3822L1112.63 3.61784C1126.78 1.22299 1141.22 1.22299 1155.37 3.61784L1207.13 12.3822C1221.28 14.777 1235.72 14.777 1249.87 12.3822L1301.63 3.61784C1315.78 1.22299 1330.22 1.22299 1344.37 3.61784L1396.13 12.3822C1410.28 14.777 1424.72 14.777 1438.87 12.3822L1512 0V326L1438.87 313.618C1424.72 311.223 1410.28 311.223 1396.13 313.618L1344.37 322.382C1330.22 324.777 1315.78 324.777 1301.63 322.382L1249.87 313.618C1235.72 311.223 1221.28 311.223 1207.13 313.618L1155.37 322.382C1141.22 324.777 1126.78 324.777 1112.63 322.382L1060.87 313.618C1046.72 311.223 1032.28 311.223 1018.13 313.618L966.368 322.382C952.223 324.777 937.777 324.777 923.632 322.382L871.868 313.618C857.723 311.223 843.277 311.223 829.132 313.618L777.368 322.382C763.223 324.777 748.777 324.777 734.632 322.382L682.868 313.618C668.723 311.223 654.277 311.223 640.132 313.618L588.368 322.382C574.223 324.777 559.777 324.777 545.632 322.382L493.868 313.618C479.723 311.223 465.277 311.223 451.132 313.618L399.368 322.382C385.223 324.777 370.777 324.777 356.632 322.382L304.868 313.618C290.723 311.223 276.277 311.223 262.132 313.618L210.368 322.382C196.223 324.777 181.777 324.777 167.632 322.382L115.868 313.618C101.723 311.223 87.2767 311.223 73.1321 313.618L0 326V0Z" fill="#14222B"/>
</svg>